<svg xmlns="http://www.w3.org/2000/svg" width="24" height="24" viewBox="0 0 24 24">
     >
<style type="text/css" media="screen">  
    <![CDATA[  
    .button {  
        width: 24px;
        height: 24px;
        path: black;
    }
    ]]>  
</style> 
<defs>
    <symbol id="rotate-left" class="button rotate"  viewBox="0 0 24 24" preserveAspectRatio="xMidYMid meet">
        <path d="M7.11 8.53L5.7 7.11C4.8 8.27 4.24 9.61 4.07 11h2.02c.14-.87.49-1.72 1.02-2.47zM6.09 13H4.07c.17 1.39.72 2.73 1.62 3.89l1.41-1.42c-.52-.75-.87-1.59-1.01-2.47zm1.01 5.32c1.16.9 2.51 1.44 3.9 1.61V17.9c-.87-.15-1.71-.49-2.46-1.03L7.1 18.32zM13 4.07V1L8.45 5.55 13 10V6.09c2.84.48 5 2.94 5 5.91s-2.16 5.43-5 5.91v2.02c3.95-.49 7-3.85 7-7.93s-3.05-7.44-7-7.93z"/>
    </symbol>

    <symbol id="rotate-right" class="button rotate"  viewBox="0 0 24 24" preserveAspectRatio="xMidYMid meet">
        <path d="M15.55 5.55L11 1v3.07C7.06 4.56 4 7.92 4 12s3.05 7.44 7 7.93v-2.02c-2.84-.48-5-2.94-5-5.91s2.16-5.43 5-5.91V10l4.55-4.45zM19.93 11c-.17-1.39-.72-2.73-1.62-3.89l-1.42 1.42c.54.75.88 1.6 1.02 2.47h2.02zM13 17.9v2.02c1.39-.17 2.74-.71 3.9-1.61l-1.44-1.44c-.75.54-1.59.89-2.46 1.03zm3.89-2.42l1.42 1.41c.9-1.16 1.45-2.5 1.62-3.89h-2.02c-.14.87-.48 1.72-1.02 2.48z"/>
    </symbol>
    <symbol id="zoom-out" class="button zoom"  viewBox="0 0 24 24" preserveAspectRatio="xMidYMid meet">
        <path d="M15.5 14h-.79l-.28-.27C15.41 12.59 16 11.11 16 9.5 16 5.91 13.09 3 9.5 3S3 5.91 3 9.5 5.91 16 9.5 16c1.61 0 3.09-.59 4.23-1.57l.27.28v.79l5 4.99L20.49 19l-4.99-5zm-6 0C7.01 14 5 11.99 5 9.5S7.01 5 9.5 5 14 7.01 14 9.5 11.99 14 9.5 14zM7 9h5v1H7z"/>
    </symbol>
    <symbol id="zoom-in" class="button zoom"  viewBox="0 0 24 24" preserveAspectRatio="xMidYMid meet">
        <path d="M15.5 14h-.79l-.28-.27C15.41 12.59 16 11.11 16 9.5 16 5.91 13.09 3 9.5 3S3 5.91 3 9.5 5.91 16 9.5 16c1.61 0 3.09-.59 4.23-1.57l.27.28v.79l5 4.99L20.49 19l-4.99-5zm-6 0C7.01 14 5 11.99 5 9.5S7.01 5 9.5 5 14 7.01 14 9.5 11.99 14 9.5 14z"/>
        <path d="M12 10h-2v2H9v-2H7V9h2V7h1v2h2v1z"/>
    </symbol>
    <symbol id="crop-out" class="button crop"  viewBox="0 0 24 24" preserveAspectRatio="xMidYMid meet">
        <path d="M 7,5 H 9 V 3 H 7 Z m 0,8 H 17 V 11 H 7 Z m 0,8 H 9 V 19 H 7 Z m 4,0 h 2 V 19 H 11 Z M 3,21 H 5 V 19 H 3 Z M 3,17 H 5 V 15 H 3 Z M 3,13 H 5 V 11 H 3 Z M 3,9 H 5 V 7 H 3 Z M 3,5 H 5 V 3 H 3 Z m 16,12 h 2 v -2 h -2 z m 0,-4 h 2 v -2 h -2 z m 0,8 h 2 V 19 H 19 Z M 19,9 h 2 V 7 h -2 z m 0,-6 v 2 h 2 V 3 Z m -8,2 h 2 V 3 h -2 z m 4,16 h 2 V 19 H 15 Z M 15,5 h 2 V 3 h -2 z"/> 
    </symbol>
    <symbol id="crop-in" class="button crop"  viewBox="0 0 24 24" preserveAspectRatio="xMidYMid meet">
        <path d="M7,5h2v-2h-2v2ZM7,13h9.938848495483398v-2h-9.938848495483398v2ZM7,21h2v-2h-2v2ZM11,17h2v-2h-2v2ZM11,21h2v-2h-2v2ZM3,21h2v-2h-2v2ZM3,17h2v-2h-2v2ZM3,13h2v-2h-2v2ZM3,9h2v-2h-2v2ZM3,5h2v-2h-2v2ZM11,13h2v-2h-2v2ZM19,17h2v-2h-2v2ZM19,13h2v-2h-2v2ZM19,21h2v-2h-2v2ZM19,9h2v-2h-2v2ZM10.9332857131958,17.005558013916016h2.066714286804199v-10.005558013916016h-2v2ZM19,3v2h2v-2h-2ZM11,5h2v-2h-2v2ZM15,21h2v-2h-2v2ZM15,13h2v-2h-2v2ZM15,5h2v-2h-2v2Z"/>
    </symbol>
    <symbol id="crop" class="button crop"  viewBox="0 0 24 24" preserveAspectRatio="xMidYMid meet">
        <path d="M17 15h2V7c0-1.1-.9-2-2-2H9v2h8v8zM7 17V1H5v4H1v2h4v10c0 1.1.9 2 2 2h10v4h2v-4h4v-2H7z"/>
    </symbol>
    <symbol id="save" class="button crop"  viewBox="0 0 24 24" preserveAspectRatio="xMidYMid meet">
        <path d="M17 3H5c-1.11 0-2 .9-2 2v14c0 1.1.89 2 2 2h14c1.1 0 2-.9 2-2V7l-4-4zm-5 16c-1.66 0-3-1.34-3-3s1.34-3 3-3 3 1.34 3 3-1.34 3-3 3zm3-10H5V5h10v4z"/>
    </symbol>
</defs>
</svg>
